# xmcd
#
# Track frame offsets: 
#        150
#        23570
#        47413
#        63333
#        82398
#        98170
#        116100
#        135270
#        153708
#        179485
#        195095
#        212645
#        228548
#        243540
#        258060
#        275892
#        293309
#
# Disc length: 4129 seconds
#
# Revision: 0
# Processed by: cddbd v1.5.2PL0 Copyright (c) Steve Scherf et al.
# Submitted via: ExactAudioCopy v0.99pb5
#
DISCID=ea101f11
DTITLE=Acdc  - The Definitive Collection, Volume II The Best Of Brian 
DTITLE=[CD1]
DYEAR=1900
DGENRE=
TTITLE0=Ac\\Dc - Hells Bells
TTITLE1=Ac\\Dc - Shoot To Thrill
TTITLE2=Ac\\Dc - Given The Dog A Bone
TTITLE3=Ac\\Dc - Let Me Put My Love Into You
TTITLE4=Ac\\Dc - You Shook Me All Night Long
TTITLE5=Ac\\Dc - Have A Drink On Me
TTITLE6=Ac\\Dc - Back In Black
TTITLE7=Ac\\Dc - Shake A Leg
TTITLE8=Ac\\Dc - For Those About To Rock (We Salute You)
TTITLE9=Ac\\Dc - Put The Finger On You
TTITLE10=Ac\\Dc - Let's Get It Up
TTITLE11=Ac\\Dc - Inject The Venom
TTITLE12=Ac\\Dc - C.O.D.
TTITLE13=Ac\\Dc - Flick Of The Switch
TTITLE14=Ac\\Dc - Landslide
TTITLE15=Ac\\Dc - Bedlam In Belgium
TTITLE16=Ac\\Dc - Badlands
EXTD=
EXTT0=
EXTT1=
EXTT2=
EXTT3=
EXTT4=
EXTT5=
EXTT6=
EXTT7=
EXTT8=
EXTT9=
EXTT10=
EXTT11=
EXTT12=
EXTT13=
EXTT14=
EXTT15=
EXTT16=
PLAYORDER=
